@startuml class diagram
!include assets/puml-theme-dark.puml
scale 2

class Event {
    +startTime: DateTime
    +venue: string
    +registrationClosed: boolean
    -notifyAttendees()
}

class ApplicationUser {
    -userName: string
    -password: string
    +isLocked: boolean
    -suggestRandomPasswod()
    +changeProfilePic()
}

class Speaker {
    +openForSpeaking: boolean
    -callForAction()
    +applyAsSpokePerson()
}

class Topic {
    +title: string
    +sourceCodeUrl: string
    +downloadMaterials()
}

class Attendee {
    -eventAttended: number
    -suggestEventBasedOnPreference()
    +registerForTicket()
}

ApplicationUser <|-- Speaker
ApplicationUser <|-- Attendee
Speaker "1" *-- "*" Topic
Event "1" o-- "*" Speaker
Event "1" o-- "*" Attendee

' abstract   abstract
' annotation annotation #pink;line:red;line.bold;text:red
' class      class      #palegreen;line:green;line.dashed;text:green
' interface  interface  #aliceblue;line:blue;line.dotted;text:blue


' abstract        abstract
' abstract class  "abstract class"
' annotation      annotation
' circle          circle
' ()              circle short form  
' class           class
' diamond         diamond
' <>              diamond_short_form
' entity          entity
' enum            enum
' interface       interface

' circle foo $INDIGO
' circle foo1 $PURPLE
' circle foo2 $RED
' circle foo3 $ORANGE
' circle foo4 $YELLOW
' circle foo5 $GREEN
' circle foo6 $TEAL
' circle foo7 $CYAN
@enduml